<svg xmlns="http://www.w3.org/2000/svg" viewBox="0 0 32 32" role="img" aria-label="Contrary Comics">
  <circle cx="16" cy="16" r="16" fill="#1A1A1A"/>
  <path fill="#FF00A8" d="M16.2 4.6c6.2 0 11.2 4.2 11.2 9.4 0 3.55-2.35 6.65-5.9 8.3l2.35 4.85-7.5-3.45c-.05.01-.1.01-.15.01-6.2 0-11.2-4.2-11.2-9.71 0-5.2 5-9.4 11.2-9.4z"/>
  <path fill="none" stroke="#00E5FF" stroke-width="2.1" stroke-linejoin="round" stroke-linecap="round" d="M16.2 7.05c4.75 0 8.55 3.25 8.55 7 0 2.55-1.8 4.9-4.55 6.2l1.35 2.7-5.15-2.4c-.07.01-.13.02-.2.02-4.75 0-8.55-3.25-8.55-7.02 0-3.75 3.8-7 8.55-7z"/>
</svg>
